<mxfile host="app.diagrams.net" modified="2021-03-18T04:32:43.922Z" agent="5.0 (X11; Linux x86_64) AppleWebKit/537.36 (KHTML, like Gecko) Chrome/89.0.4389.82 Safari/537.36" etag="haVlR2ErAkIWcZepabpG" version="14.4.9" type="github">
  <diagram id="p8VolZ-N6K9utPq0kfwX" name="Page-1">
    <mxGraphModel dx="1422" dy="833" grid="1" gridSize="10" guides="1" tooltips="1" connect="1" arrows="1" fold="1" page="1" pageScale="1" pageWidth="827" pageHeight="1169" math="0" shadow="0">
      <root>
        <mxCell id="0" />
        <mxCell id="1" parent="0" />
        <mxCell id="xNPw3v3MWfUP0mEYA9Z2-2" value="&lt;font style=&quot;font-size: 14px&quot;&gt;AWS Cloud&lt;/font&gt;" style="points=[[0,0],[0.25,0],[0.5,0],[0.75,0],[1,0],[1,0.25],[1,0.5],[1,0.75],[1,1],[0.75,1],[0.5,1],[0.25,1],[0,1],[0,0.75],[0,0.5],[0,0.25]];outlineConnect=0;gradientColor=none;html=1;whiteSpace=wrap;fontSize=12;fontStyle=0;shape=mxgraph.aws4.group;grIcon=mxgraph.aws4.group_aws_cloud_alt;strokeColor=#232F3E;fillColor=none;verticalAlign=top;align=left;spacingLeft=30;fontColor=#232F3E;dashed=0;" parent="1" vertex="1">
          <mxGeometry x="29.5" y="200" width="1300.5" height="740" as="geometry" />
        </mxCell>
        <mxCell id="xNPw3v3MWfUP0mEYA9Z2-3" value="&lt;span style=&quot;color: rgb(22 , 25 , 31) ; font-family: &amp;#34;amazon ember&amp;#34; , &amp;#34;helvetica neue&amp;#34; , &amp;#34;roboto&amp;#34; , &amp;#34;arial&amp;#34; , sans-serif ; font-size: 14px ; background-color: rgb(241 , 250 , 255)&quot;&gt;ap-northeast-1&lt;/span&gt;" style="points=[[0,0],[0.25,0],[0.5,0],[0.75,0],[1,0],[1,0.25],[1,0.5],[1,0.75],[1,1],[0.75,1],[0.5,1],[0.25,1],[0,1],[0,0.75],[0,0.5],[0,0.25]];outlineConnect=0;gradientColor=none;html=1;whiteSpace=wrap;fontSize=12;fontStyle=0;shape=mxgraph.aws4.group;grIcon=mxgraph.aws4.group_region;strokeColor=#147EBA;fillColor=none;verticalAlign=top;align=left;spacingLeft=30;fontColor=#147EBA;dashed=1;" parent="1" vertex="1">
          <mxGeometry x="64.25" y="240" width="1231" height="660" as="geometry" />
        </mxCell>
        <mxCell id="xNPw3v3MWfUP0mEYA9Z2-4" value="&lt;font style=&quot;font-size: 14px&quot;&gt;VPC&lt;/font&gt;" style="points=[[0,0],[0.25,0],[0.5,0],[0.75,0],[1,0],[1,0.25],[1,0.5],[1,0.75],[1,1],[0.75,1],[0.5,1],[0.25,1],[0,1],[0,0.75],[0,0.5],[0,0.25]];outlineConnect=0;gradientColor=none;html=1;whiteSpace=wrap;fontSize=12;fontStyle=0;shape=mxgraph.aws4.group;grIcon=mxgraph.aws4.group_vpc;strokeColor=#248814;fillColor=none;verticalAlign=top;align=left;spacingLeft=30;fontColor=#AAB7B8;dashed=0;" parent="1" vertex="1">
          <mxGeometry x="99.5" y="300" width="1160.5" height="480" as="geometry" />
        </mxCell>
        <mxCell id="xNPw3v3MWfUP0mEYA9Z2-5" value="ap-northeast-1c" style="fillColor=none;strokeColor=#147EBA;dashed=1;verticalAlign=top;fontStyle=0;fontColor=#147EBA;fontSize=14;" parent="1" vertex="1">
          <mxGeometry x="770" y="339" width="457" height="391" as="geometry" />
        </mxCell>
        <mxCell id="xNPw3v3MWfUP0mEYA9Z2-6" value="ap-northeast-1a" style="fillColor=none;strokeColor=#147EBA;dashed=1;verticalAlign=top;fontStyle=0;fontColor=#147EBA;fontSize=14;" parent="1" vertex="1">
          <mxGeometry x="130" y="339" width="460" height="391" as="geometry" />
        </mxCell>
        <mxCell id="xNPw3v3MWfUP0mEYA9Z2-7" style="edgeStyle=orthogonalEdgeStyle;rounded=0;orthogonalLoop=1;jettySize=auto;html=1;exitX=0.5;exitY=1;exitDx=0;exitDy=0;" parent="1" source="xNPw3v3MWfUP0mEYA9Z2-5" target="xNPw3v3MWfUP0mEYA9Z2-5" edge="1">
          <mxGeometry relative="1" as="geometry" />
        </mxCell>
        <mxCell id="xNPw3v3MWfUP0mEYA9Z2-8" value="&lt;font style=&quot;font-size: 14px&quot;&gt;Public subnet&lt;/font&gt;" style="points=[[0,0],[0.25,0],[0.5,0],[0.75,0],[1,0],[1,0.25],[1,0.5],[1,0.75],[1,1],[0.75,1],[0.5,1],[0.25,1],[0,1],[0,0.75],[0,0.5],[0,0.25]];outlineConnect=0;gradientColor=none;html=1;whiteSpace=wrap;fontSize=12;fontStyle=0;shape=mxgraph.aws4.group;grIcon=mxgraph.aws4.group_security_group;grStroke=0;strokeColor=#248814;fillColor=#E9F3E6;verticalAlign=top;align=left;spacingLeft=30;fontColor=#248814;dashed=0;" parent="1" vertex="1">
          <mxGeometry x="230" y="370" width="270" height="150" as="geometry" />
        </mxCell>
        <mxCell id="xNPw3v3MWfUP0mEYA9Z2-9" value="&lt;font style=&quot;font-size: 14px&quot;&gt;Public subnet&lt;/font&gt;" style="points=[[0,0],[0.25,0],[0.5,0],[0.75,0],[1,0],[1,0.25],[1,0.5],[1,0.75],[1,1],[0.75,1],[0.5,1],[0.25,1],[0,1],[0,0.75],[0,0.5],[0,0.25]];outlineConnect=0;gradientColor=none;html=1;whiteSpace=wrap;fontSize=12;fontStyle=0;shape=mxgraph.aws4.group;grIcon=mxgraph.aws4.group_security_group;grStroke=0;strokeColor=#248814;fillColor=#E9F3E6;verticalAlign=top;align=left;spacingLeft=30;fontColor=#248814;dashed=0;" parent="1" vertex="1">
          <mxGeometry x="827" y="370" width="263" height="150" as="geometry" />
        </mxCell>
        <mxCell id="xNPw3v3MWfUP0mEYA9Z2-10" value="&lt;font style=&quot;font-size: 14px&quot;&gt;Private subnet&lt;/font&gt;" style="points=[[0,0],[0.25,0],[0.5,0],[0.75,0],[1,0],[1,0.25],[1,0.5],[1,0.75],[1,1],[0.75,1],[0.5,1],[0.25,1],[0,1],[0,0.75],[0,0.5],[0,0.25]];outlineConnect=0;gradientColor=none;html=1;whiteSpace=wrap;fontSize=12;fontStyle=0;shape=mxgraph.aws4.group;grIcon=mxgraph.aws4.group_security_group;grStroke=0;strokeColor=#147EBA;fillColor=#E6F2F8;verticalAlign=top;align=left;spacingLeft=30;fontColor=#147EBA;dashed=0;" parent="1" vertex="1">
          <mxGeometry x="160" y="540" width="400" height="150" as="geometry" />
        </mxCell>
        <mxCell id="xNPw3v3MWfUP0mEYA9Z2-11" value="&lt;font style=&quot;font-size: 14px&quot;&gt;Private subnet&lt;/font&gt;" style="points=[[0,0],[0.25,0],[0.5,0],[0.75,0],[1,0],[1,0.25],[1,0.5],[1,0.75],[1,1],[0.75,1],[0.5,1],[0.25,1],[0,1],[0,0.75],[0,0.5],[0,0.25]];outlineConnect=0;gradientColor=none;html=1;whiteSpace=wrap;fontSize=12;fontStyle=0;shape=mxgraph.aws4.group;grIcon=mxgraph.aws4.group_security_group;grStroke=0;strokeColor=#147EBA;fillColor=#E6F2F8;verticalAlign=top;align=left;spacingLeft=30;fontColor=#147EBA;dashed=0;" parent="1" vertex="1">
          <mxGeometry x="800" y="540" width="410" height="150" as="geometry" />
        </mxCell>
        <mxCell id="i_n1k2-1s-NiqfXJ3xOX-46" style="edgeStyle=orthogonalEdgeStyle;rounded=0;orthogonalLoop=1;jettySize=auto;html=1;startArrow=classic;startFill=1;endArrow=classic;endFill=1;" parent="1" source="xNPw3v3MWfUP0mEYA9Z2-12" target="xNPw3v3MWfUP0mEYA9Z2-14" edge="1">
          <mxGeometry relative="1" as="geometry" />
        </mxCell>
        <mxCell id="Dv-C4iRL3iVz8-i2bULK-24" style="edgeStyle=orthogonalEdgeStyle;rounded=0;orthogonalLoop=1;jettySize=auto;html=1;entryX=0;entryY=0.5;entryDx=0;entryDy=0;entryPerimeter=0;startArrow=classic;startFill=1;endArrow=none;endFill=0;" edge="1" parent="1" target="xNPw3v3MWfUP0mEYA9Z2-34">
          <mxGeometry relative="1" as="geometry">
            <mxPoint x="702" y="330" as="sourcePoint" />
            <Array as="points">
              <mxPoint x="702" y="390" />
              <mxPoint x="810" y="390" />
              <mxPoint x="810" y="464" />
            </Array>
          </mxGeometry>
        </mxCell>
        <mxCell id="Dv-C4iRL3iVz8-i2bULK-25" style="edgeStyle=orthogonalEdgeStyle;rounded=0;orthogonalLoop=1;jettySize=auto;html=1;startArrow=classic;startFill=1;endArrow=classic;endFill=1;" edge="1" parent="1" source="xNPw3v3MWfUP0mEYA9Z2-12">
          <mxGeometry relative="1" as="geometry">
            <mxPoint x="677" y="160" as="targetPoint" />
          </mxGeometry>
        </mxCell>
        <mxCell id="xNPw3v3MWfUP0mEYA9Z2-12" value="" style="outlineConnect=0;dashed=0;verticalLabelPosition=bottom;verticalAlign=top;align=center;html=1;shape=mxgraph.aws3.internet_gateway;fillColor=#F58534;gradientColor=none;" parent="1" vertex="1">
          <mxGeometry x="642.5" y="262" width="69" height="72" as="geometry" />
        </mxCell>
        <mxCell id="i_n1k2-1s-NiqfXJ3xOX-50" style="edgeStyle=orthogonalEdgeStyle;rounded=0;orthogonalLoop=1;jettySize=auto;html=1;entryX=0;entryY=0.5;entryDx=0;entryDy=0;entryPerimeter=0;startArrow=classic;startFill=1;endArrow=classic;endFill=1;fontSize=14;exitX=0.5;exitY=1.05;exitDx=0;exitDy=0;exitPerimeter=0;" parent="1" source="i_n1k2-1s-NiqfXJ3xOX-52" target="xNPw3v3MWfUP0mEYA9Z2-37" edge="1">
          <mxGeometry relative="1" as="geometry">
            <mxPoint x="299" y="690" as="sourcePoint" />
            <Array as="points">
              <mxPoint x="510" y="840" />
            </Array>
          </mxGeometry>
        </mxCell>
        <mxCell id="Dv-C4iRL3iVz8-i2bULK-3" style="edgeStyle=orthogonalEdgeStyle;rounded=0;orthogonalLoop=1;jettySize=auto;html=1;startArrow=none;startFill=0;" edge="1" parent="1" target="xNPw3v3MWfUP0mEYA9Z2-32">
          <mxGeometry relative="1" as="geometry">
            <mxPoint x="500" y="570" as="sourcePoint" />
            <mxPoint x="327" y="500" as="targetPoint" />
            <Array as="points">
              <mxPoint x="500" y="470" />
            </Array>
          </mxGeometry>
        </mxCell>
        <mxCell id="xNPw3v3MWfUP0mEYA9Z2-13" value="" style="points=[[0,0,0],[0.25,0,0],[0.5,0,0],[0.75,0,0],[1,0,0],[0,1,0],[0.25,1,0],[0.5,1,0],[0.75,1,0],[1,1,0],[0,0.25,0],[0,0.5,0],[0,0.75,0],[1,0.25,0],[1,0.5,0],[1,0.75,0]];outlineConnect=0;fontColor=#232F3E;gradientColor=#F78E04;gradientDirection=north;fillColor=#D05C17;strokeColor=#ffffff;dashed=0;verticalLabelPosition=bottom;verticalAlign=top;align=center;html=1;fontSize=12;fontStyle=0;aspect=fixed;shape=mxgraph.aws4.resourceIcon;resIcon=mxgraph.aws4.ec2;" parent="1" vertex="1">
          <mxGeometry x="470" y="570" width="78" height="78" as="geometry" />
        </mxCell>
        <mxCell id="i_n1k2-1s-NiqfXJ3xOX-23" style="edgeStyle=orthogonalEdgeStyle;rounded=0;orthogonalLoop=1;jettySize=auto;html=1;startArrow=classic;startFill=1;entryX=0.75;entryY=0;entryDx=0;entryDy=0;entryPerimeter=0;exitX=0;exitY=0.5;exitDx=0;exitDy=0;exitPerimeter=0;" parent="1" target="xNPw3v3MWfUP0mEYA9Z2-13" edge="1" source="xNPw3v3MWfUP0mEYA9Z2-14">
          <mxGeometry relative="1" as="geometry">
            <mxPoint x="390" y="530" as="sourcePoint" />
            <Array as="points">
              <mxPoint x="529" y="468" />
            </Array>
          </mxGeometry>
        </mxCell>
        <mxCell id="Dv-C4iRL3iVz8-i2bULK-30" style="edgeStyle=orthogonalEdgeStyle;rounded=0;orthogonalLoop=1;jettySize=auto;html=1;entryX=0;entryY=0.5;entryDx=0;entryDy=0;entryPerimeter=0;startArrow=classic;startFill=1;endArrow=classic;endFill=1;" edge="1" parent="1" source="xNPw3v3MWfUP0mEYA9Z2-14" target="xNPw3v3MWfUP0mEYA9Z2-19">
          <mxGeometry relative="1" as="geometry">
            <Array as="points">
              <mxPoint x="790" y="468" />
              <mxPoint x="790" y="609" />
            </Array>
          </mxGeometry>
        </mxCell>
        <mxCell id="xNPw3v3MWfUP0mEYA9Z2-14" value="" style="points=[[0,0,0],[0.25,0,0],[0.5,0,0],[0.75,0,0],[1,0,0],[0,1,0],[0.25,1,0],[0.5,1,0],[0.75,1,0],[1,1,0],[0,0.25,0],[0,0.5,0],[0,0.75,0],[1,0.25,0],[1,0.5,0],[1,0.75,0]];outlineConnect=0;fontColor=#232F3E;gradientColor=#F78E04;gradientDirection=north;fillColor=#D05C17;strokeColor=#ffffff;dashed=0;verticalLabelPosition=bottom;verticalAlign=top;align=center;html=1;fontSize=12;fontStyle=0;aspect=fixed;shape=mxgraph.aws4.resourceIcon;resIcon=mxgraph.aws4.elastic_load_balancing;" parent="1" vertex="1">
          <mxGeometry x="645" y="436" width="64" height="64" as="geometry" />
        </mxCell>
        <mxCell id="Dv-C4iRL3iVz8-i2bULK-33" style="edgeStyle=orthogonalEdgeStyle;rounded=0;orthogonalLoop=1;jettySize=auto;html=1;startArrow=none;startFill=0;endArrow=classic;endFill=1;exitX=1;exitY=0.5;exitDx=0;exitDy=0;exitPerimeter=0;" edge="1" parent="1" source="xNPw3v3MWfUP0mEYA9Z2-19" target="xNPw3v3MWfUP0mEYA9Z2-34">
          <mxGeometry relative="1" as="geometry">
            <Array as="points">
              <mxPoint x="970" y="609" />
              <mxPoint x="970" y="464" />
            </Array>
          </mxGeometry>
        </mxCell>
        <mxCell id="xNPw3v3MWfUP0mEYA9Z2-19" value="" style="points=[[0,0,0],[0.25,0,0],[0.5,0,0],[0.75,0,0],[1,0,0],[0,1,0],[0.25,1,0],[0.5,1,0],[0.75,1,0],[1,1,0],[0,0.25,0],[0,0.5,0],[0,0.75,0],[1,0.25,0],[1,0.5,0],[1,0.75,0]];outlineConnect=0;fontColor=#232F3E;gradientColor=#F78E04;gradientDirection=north;fillColor=#D05C17;strokeColor=#ffffff;dashed=0;verticalLabelPosition=bottom;verticalAlign=top;align=center;html=1;fontSize=12;fontStyle=0;aspect=fixed;shape=mxgraph.aws4.resourceIcon;resIcon=mxgraph.aws4.ec2;" parent="1" vertex="1">
          <mxGeometry x="840" y="570" width="78" height="78" as="geometry" />
        </mxCell>
        <mxCell id="xNPw3v3MWfUP0mEYA9Z2-24" value="" style="points=[[0,0,0],[0.25,0,0],[0.5,0,0],[0.75,0,0],[1,0,0],[0,1,0],[0.25,1,0],[0.5,1,0],[0.75,1,0],[1,1,0],[0,0.25,0],[0,0.5,0],[0,0.75,0],[1,0.25,0],[1,0.5,0],[1,0.75,0]];outlineConnect=0;fontColor=#232F3E;gradientColor=#F78E04;gradientDirection=north;fillColor=#D05C17;strokeColor=#ffffff;dashed=0;verticalLabelPosition=bottom;verticalAlign=top;align=center;html=1;fontSize=12;fontStyle=0;aspect=fixed;shape=mxgraph.aws4.resourceIcon;resIcon=mxgraph.aws4.ec2;" parent="1" vertex="1">
          <mxGeometry x="270" y="425" width="70" height="70" as="geometry" />
        </mxCell>
        <mxCell id="xNPw3v3MWfUP0mEYA9Z2-27" value="&lt;font style=&quot;font-size: 14px&quot;&gt;Bastion&lt;/font&gt;" style="text;html=1;resizable=0;autosize=1;align=center;verticalAlign=middle;points=[];fillColor=none;strokeColor=none;rounded=0;" parent="1" vertex="1">
          <mxGeometry x="275" y="405" width="60" height="20" as="geometry" />
        </mxCell>
        <mxCell id="xNPw3v3MWfUP0mEYA9Z2-29" value="" style="points=[[0,0,0],[0.25,0,0],[0.5,0,0],[0.75,0,0],[1,0,0],[0,1,0],[0.25,1,0],[0.5,1,0],[0.75,1,0],[1,1,0],[0,0.25,0],[0,0.5,0],[0,0.75,0],[1,0.25,0],[1,0.5,0],[1,0.75,0]];outlineConnect=0;fontColor=#232F3E;gradientColor=#F78E04;gradientDirection=north;fillColor=#D05C17;strokeColor=#ffffff;dashed=0;verticalLabelPosition=bottom;verticalAlign=top;align=center;html=1;fontSize=12;fontStyle=0;aspect=fixed;shape=mxgraph.aws4.resourceIcon;resIcon=mxgraph.aws4.ec2;" parent="1" vertex="1">
          <mxGeometry x="992.5" y="433" width="70" height="70" as="geometry" />
        </mxCell>
        <mxCell id="xNPw3v3MWfUP0mEYA9Z2-30" value="&lt;font style=&quot;font-size: 14px&quot;&gt;Bastion&lt;/font&gt;" style="text;html=1;resizable=0;autosize=1;align=center;verticalAlign=middle;points=[];fillColor=none;strokeColor=none;rounded=0;" parent="1" vertex="1">
          <mxGeometry x="998.5" y="409" width="60" height="20" as="geometry" />
        </mxCell>
        <mxCell id="i_n1k2-1s-NiqfXJ3xOX-18" style="edgeStyle=orthogonalEdgeStyle;rounded=0;orthogonalLoop=1;jettySize=auto;html=1;startArrow=none;startFill=0;entryX=0.474;entryY=0.065;entryDx=0;entryDy=0;entryPerimeter=0;" parent="1" edge="1" target="xNPw3v3MWfUP0mEYA9Z2-4">
          <mxGeometry relative="1" as="geometry">
            <mxPoint x="475" y="450" as="sourcePoint" />
            <mxPoint x="530" y="330" as="targetPoint" />
            <Array as="points">
              <mxPoint x="475" y="450" />
              <mxPoint x="510" y="450" />
              <mxPoint x="510" y="390" />
              <mxPoint x="650" y="390" />
            </Array>
          </mxGeometry>
        </mxCell>
        <mxCell id="xNPw3v3MWfUP0mEYA9Z2-32" value="" style="outlineConnect=0;dashed=0;verticalLabelPosition=bottom;verticalAlign=top;align=center;html=1;shape=mxgraph.aws3.vpc_nat_gateway;fillColor=#F58534;gradientColor=none;" parent="1" vertex="1">
          <mxGeometry x="405.5" y="420" width="69" height="72" as="geometry" />
        </mxCell>
        <mxCell id="xNPw3v3MWfUP0mEYA9Z2-34" value="" style="outlineConnect=0;dashed=0;verticalLabelPosition=bottom;verticalAlign=top;align=center;html=1;shape=mxgraph.aws3.vpc_nat_gateway;fillColor=#F58534;gradientColor=none;" parent="1" vertex="1">
          <mxGeometry x="871" y="428" width="69" height="72" as="geometry" />
        </mxCell>
        <mxCell id="Dv-C4iRL3iVz8-i2bULK-2" style="edgeStyle=orthogonalEdgeStyle;rounded=0;orthogonalLoop=1;jettySize=auto;html=1;entryX=0.507;entryY=0.95;entryDx=0;entryDy=0;entryPerimeter=0;startArrow=classic;startFill=1;" edge="1" parent="1" source="xNPw3v3MWfUP0mEYA9Z2-37" target="i_n1k2-1s-NiqfXJ3xOX-53">
          <mxGeometry relative="1" as="geometry" />
        </mxCell>
        <mxCell id="xNPw3v3MWfUP0mEYA9Z2-37" value="" style="outlineConnect=0;dashed=0;verticalLabelPosition=bottom;verticalAlign=top;align=center;html=1;shape=mxgraph.aws3.s3;fillColor=#E05243;gradientColor=none;strokeWidth=2;fontSize=15;" parent="1" vertex="1">
          <mxGeometry x="643.5" y="800" width="70" height="80" as="geometry" />
        </mxCell>
        <mxCell id="i_n1k2-1s-NiqfXJ3xOX-8" style="edgeStyle=orthogonalEdgeStyle;rounded=0;orthogonalLoop=1;jettySize=auto;html=1;startArrow=classic;startFill=1;" parent="1" source="i_n1k2-1s-NiqfXJ3xOX-3" target="i_n1k2-1s-NiqfXJ3xOX-7" edge="1">
          <mxGeometry relative="1" as="geometry" />
        </mxCell>
        <mxCell id="i_n1k2-1s-NiqfXJ3xOX-3" value="" style="outlineConnect=0;dashed=0;verticalLabelPosition=bottom;verticalAlign=top;align=center;html=1;shape=mxgraph.aws3.cloudfront;fillColor=#F58536;gradientColor=none;" parent="1" vertex="1">
          <mxGeometry x="646" y="80" width="56" height="73" as="geometry" />
        </mxCell>
        <mxCell id="i_n1k2-1s-NiqfXJ3xOX-12" style="edgeStyle=orthogonalEdgeStyle;rounded=0;orthogonalLoop=1;jettySize=auto;html=1;entryX=0;entryY=0.5;entryDx=0;entryDy=0;entryPerimeter=0;startArrow=classic;startFill=1;" parent="1" source="i_n1k2-1s-NiqfXJ3xOX-7" target="i_n1k2-1s-NiqfXJ3xOX-11" edge="1">
          <mxGeometry relative="1" as="geometry" />
        </mxCell>
        <mxCell id="i_n1k2-1s-NiqfXJ3xOX-7" value="" style="outlineConnect=0;dashed=0;verticalLabelPosition=bottom;verticalAlign=top;align=center;html=1;shape=mxgraph.aws3.route_53;fillColor=#F58536;gradientColor=none;" parent="1" vertex="1">
          <mxGeometry x="815" y="76.5" width="60" height="80" as="geometry" />
        </mxCell>
        <mxCell id="i_n1k2-1s-NiqfXJ3xOX-11" value="" style="verticalLabelPosition=bottom;html=1;fillColor=#282828;strokeColor=none;verticalAlign=top;pointerEvents=1;align=center;shape=mxgraph.cisco_safe.people_places_things_icons.icon2;" parent="1" vertex="1">
          <mxGeometry x="985" y="86.5" width="60" height="60" as="geometry" />
        </mxCell>
        <mxCell id="i_n1k2-1s-NiqfXJ3xOX-22" value="" style="outlineConnect=0;dashed=0;verticalLabelPosition=bottom;verticalAlign=top;align=center;html=1;shape=mxgraph.aws3.auto_scaling;fillColor=#F58534;gradientColor=none;" parent="1" vertex="1">
          <mxGeometry x="644" y="578" width="66" height="68" as="geometry" />
        </mxCell>
        <mxCell id="i_n1k2-1s-NiqfXJ3xOX-38" value="&lt;font style=&quot;font-size: 14px&quot;&gt;Cloudfront&lt;/font&gt;" style="text;html=1;resizable=0;autosize=1;align=center;verticalAlign=middle;points=[];fillColor=none;strokeColor=none;rounded=0;" parent="1" vertex="1">
          <mxGeometry x="633" y="56.5" width="80" height="20" as="geometry" />
        </mxCell>
        <mxCell id="i_n1k2-1s-NiqfXJ3xOX-39" value="&lt;font&gt;&lt;font style=&quot;font-size: 14px&quot;&gt;Route 53&lt;/font&gt;&lt;br&gt;&lt;/font&gt;" style="text;html=1;resizable=0;autosize=1;align=center;verticalAlign=middle;points=[];fillColor=none;strokeColor=none;rounded=0;" parent="1" vertex="1">
          <mxGeometry x="810" y="50" width="70" height="20" as="geometry" />
        </mxCell>
        <mxCell id="i_n1k2-1s-NiqfXJ3xOX-40" value="&lt;font&gt;&lt;font style=&quot;font-size: 14px&quot;&gt;Users&lt;/font&gt;&lt;br&gt;&lt;/font&gt;" style="text;html=1;resizable=0;autosize=1;align=center;verticalAlign=middle;points=[];fillColor=none;strokeColor=none;rounded=0;" parent="1" vertex="1">
          <mxGeometry x="985" y="56.5" width="50" height="20" as="geometry" />
        </mxCell>
        <mxCell id="i_n1k2-1s-NiqfXJ3xOX-41" value="&lt;font&gt;&lt;font style=&quot;font-size: 15px&quot;&gt;Internet gateway&lt;/font&gt;&lt;br&gt;&lt;/font&gt;" style="text;html=1;resizable=0;autosize=1;align=center;verticalAlign=middle;points=[];fillColor=none;strokeColor=none;rounded=0;" parent="1" vertex="1">
          <mxGeometry x="690" y="252" width="130" height="20" as="geometry" />
        </mxCell>
        <mxCell id="i_n1k2-1s-NiqfXJ3xOX-47" value="&lt;font&gt;&lt;font style=&quot;font-size: 14px&quot;&gt;Application load balancer&lt;/font&gt;&lt;br&gt;&lt;/font&gt;" style="text;html=1;resizable=0;autosize=1;align=center;verticalAlign=middle;points=[];fillColor=none;strokeColor=none;rounded=0;" parent="1" vertex="1">
          <mxGeometry x="594.75" y="500" width="170" height="20" as="geometry" />
        </mxCell>
        <mxCell id="i_n1k2-1s-NiqfXJ3xOX-48" value="&lt;font&gt;&lt;font style=&quot;font-size: 14px&quot;&gt;NAT gateway&lt;/font&gt;&lt;br&gt;&lt;/font&gt;" style="text;html=1;resizable=0;autosize=1;align=center;verticalAlign=middle;points=[];fillColor=none;strokeColor=none;rounded=0;" parent="1" vertex="1">
          <mxGeometry x="390" y="398" width="100" height="20" as="geometry" />
        </mxCell>
        <mxCell id="i_n1k2-1s-NiqfXJ3xOX-49" value="&lt;font&gt;&lt;font style=&quot;font-size: 14px&quot;&gt;NAT gateway&lt;/font&gt;&lt;br&gt;&lt;/font&gt;" style="text;html=1;resizable=0;autosize=1;align=center;verticalAlign=middle;points=[];fillColor=none;strokeColor=none;rounded=0;" parent="1" vertex="1">
          <mxGeometry x="848" y="405" width="100" height="20" as="geometry" />
        </mxCell>
        <mxCell id="i_n1k2-1s-NiqfXJ3xOX-52" value="&lt;font&gt;&lt;font style=&quot;font-size: 14px&quot;&gt;Blog EC2&lt;/font&gt;&lt;br&gt;&lt;/font&gt;" style="text;html=1;resizable=0;autosize=1;align=center;verticalAlign=middle;points=[];fillColor=none;strokeColor=none;rounded=0;" parent="1" vertex="1">
          <mxGeometry x="474.5" y="650" width="70" height="20" as="geometry" />
        </mxCell>
        <mxCell id="i_n1k2-1s-NiqfXJ3xOX-53" value="&lt;font&gt;&lt;font style=&quot;font-size: 14px&quot;&gt;Blog EC2&lt;/font&gt;&lt;br&gt;&lt;/font&gt;" style="text;html=1;resizable=0;autosize=1;align=center;verticalAlign=middle;points=[];fillColor=none;strokeColor=none;rounded=0;" parent="1" vertex="1">
          <mxGeometry x="844" y="648" width="70" height="20" as="geometry" />
        </mxCell>
        <mxCell id="i_n1k2-1s-NiqfXJ3xOX-54" value="&lt;font&gt;&lt;font style=&quot;font-size: 14px&quot;&gt;Auto Scaling&lt;/font&gt;&lt;br&gt;&lt;/font&gt;" style="text;html=1;resizable=0;autosize=1;align=center;verticalAlign=middle;points=[];fillColor=none;strokeColor=none;rounded=0;" parent="1" vertex="1">
          <mxGeometry x="633" y="650" width="90" height="20" as="geometry" />
        </mxCell>
        <mxCell id="i_n1k2-1s-NiqfXJ3xOX-55" value="&lt;font&gt;&lt;font style=&quot;font-size: 14px&quot;&gt;S3 backet for static files&lt;/font&gt;&lt;br&gt;&lt;/font&gt;" style="text;html=1;resizable=0;autosize=1;align=center;verticalAlign=middle;points=[];fillColor=none;strokeColor=none;rounded=0;" parent="1" vertex="1">
          <mxGeometry x="690" y="870" width="160" height="20" as="geometry" />
        </mxCell>
        <mxCell id="Dv-C4iRL3iVz8-i2bULK-1" style="edgeStyle=orthogonalEdgeStyle;rounded=0;orthogonalLoop=1;jettySize=auto;html=1;entryX=0.508;entryY=1.05;entryDx=0;entryDy=0;entryPerimeter=0;startArrow=classic;startFill=1;exitX=0.542;exitY=1.1;exitDx=0;exitDy=0;exitPerimeter=0;" edge="1" parent="1" source="i_n1k2-1s-NiqfXJ3xOX-56" target="i_n1k2-1s-NiqfXJ3xOX-57">
          <mxGeometry relative="1" as="geometry">
            <Array as="points">
              <mxPoint x="206" y="750" />
              <mxPoint x="1166" y="750" />
            </Array>
          </mxGeometry>
        </mxCell>
        <mxCell id="i_n1k2-1s-NiqfXJ3xOX-56" value="&lt;font&gt;&lt;font style=&quot;font-size: 14px&quot;&gt;Primary&lt;/font&gt;&lt;br&gt;&lt;/font&gt;" style="text;html=1;resizable=0;autosize=1;align=center;verticalAlign=middle;points=[];fillColor=none;strokeColor=none;rounded=0;" parent="1" vertex="1">
          <mxGeometry x="173.5" y="646" width="60" height="20" as="geometry" />
        </mxCell>
        <mxCell id="i_n1k2-1s-NiqfXJ3xOX-57" value="&lt;font&gt;&lt;font style=&quot;font-size: 14px&quot;&gt;Standby&lt;/font&gt;&lt;br&gt;&lt;/font&gt;" style="text;html=1;resizable=0;autosize=1;align=center;verticalAlign=middle;points=[];fillColor=none;strokeColor=none;rounded=0;" parent="1" vertex="1">
          <mxGeometry x="1130" y="638.5" width="70" height="20" as="geometry" />
        </mxCell>
        <mxCell id="Dv-C4iRL3iVz8-i2bULK-8" value="" style="outlineConnect=0;fontColor=#232F3E;gradientColor=none;fillColor=#3334B9;strokeColor=none;dashed=0;verticalLabelPosition=bottom;verticalAlign=top;align=center;html=1;fontSize=12;fontStyle=0;aspect=fixed;pointerEvents=1;shape=mxgraph.aws4.rds_postgresql_instance;" vertex="1" parent="1">
          <mxGeometry x="1130" y="571.5" width="67" height="67" as="geometry" />
        </mxCell>
        <mxCell id="Dv-C4iRL3iVz8-i2bULK-7" value="" style="outlineConnect=0;fontColor=#232F3E;gradientColor=none;fillColor=#3334B9;strokeColor=none;dashed=0;verticalLabelPosition=bottom;verticalAlign=top;align=center;html=1;fontSize=12;fontStyle=0;aspect=fixed;pointerEvents=1;shape=mxgraph.aws4.rds_postgresql_instance;" vertex="1" parent="1">
          <mxGeometry x="170" y="575.5" width="67" height="67" as="geometry" />
        </mxCell>
        <mxCell id="Dv-C4iRL3iVz8-i2bULK-13" value="&lt;font style=&quot;font-size: 15px&quot;&gt;Elasticache Redis Primary&lt;br&gt;&lt;/font&gt;" style="text;html=1;resizable=0;autosize=1;align=center;verticalAlign=middle;points=[];fillColor=none;strokeColor=none;rounded=0;" vertex="1" parent="1">
          <mxGeometry x="253" y="650" width="190" height="20" as="geometry" />
        </mxCell>
        <mxCell id="Dv-C4iRL3iVz8-i2bULK-26" style="edgeStyle=orthogonalEdgeStyle;rounded=0;orthogonalLoop=1;jettySize=auto;html=1;startArrow=classic;startFill=1;endArrow=classic;endFill=1;exitX=0.5;exitY=0.95;exitDx=0;exitDy=0;exitPerimeter=0;entryX=0.468;entryY=1;entryDx=0;entryDy=0;entryPerimeter=0;" edge="1" parent="1" source="Dv-C4iRL3iVz8-i2bULK-13" target="Dv-C4iRL3iVz8-i2bULK-16">
          <mxGeometry relative="1" as="geometry">
            <mxPoint x="360" y="680" as="sourcePoint" />
            <mxPoint x="1032" y="669" as="targetPoint" />
            <Array as="points">
              <mxPoint x="348" y="710" />
              <mxPoint x="1037" y="710" />
            </Array>
          </mxGeometry>
        </mxCell>
        <mxCell id="Dv-C4iRL3iVz8-i2bULK-27" value="" style="edgeStyle=orthogonalEdgeStyle;rounded=0;orthogonalLoop=1;jettySize=auto;html=1;startArrow=classic;startFill=1;endArrow=classic;endFill=1;" edge="1" parent="1" source="xNPw3v3MWfUP0mEYA9Z2-13" target="Dv-C4iRL3iVz8-i2bULK-7">
          <mxGeometry relative="1" as="geometry">
            <Array as="points">
              <mxPoint x="420" y="590" />
              <mxPoint x="420" y="530" />
              <mxPoint x="290" y="530" />
              <mxPoint x="290" y="609" />
            </Array>
          </mxGeometry>
        </mxCell>
        <mxCell id="Dv-C4iRL3iVz8-i2bULK-28" style="edgeStyle=orthogonalEdgeStyle;rounded=0;orthogonalLoop=1;jettySize=auto;html=1;startArrow=classic;startFill=1;endArrow=classic;endFill=1;" edge="1" parent="1" source="Dv-C4iRL3iVz8-i2bULK-15" target="xNPw3v3MWfUP0mEYA9Z2-13">
          <mxGeometry relative="1" as="geometry" />
        </mxCell>
        <mxCell id="Dv-C4iRL3iVz8-i2bULK-15" value="" style="points=[[0,0,0],[0.25,0,0],[0.5,0,0],[0.75,0,0],[1,0,0],[0,1,0],[0.25,1,0],[0.5,1,0],[0.75,1,0],[1,1,0],[0,0.25,0],[0,0.5,0],[0,0.75,0],[1,0.25,0],[1,0.5,0],[1,0.75,0]];outlineConnect=0;fontColor=#232F3E;gradientColor=#4D72F3;gradientDirection=north;fillColor=#3334B9;strokeColor=#ffffff;dashed=0;verticalLabelPosition=bottom;verticalAlign=top;align=center;html=1;fontSize=12;fontStyle=0;aspect=fixed;shape=mxgraph.aws4.resourceIcon;resIcon=mxgraph.aws4.elasticache;" vertex="1" parent="1">
          <mxGeometry x="309" y="570" width="78" height="78" as="geometry" />
        </mxCell>
        <mxCell id="Dv-C4iRL3iVz8-i2bULK-16" value="&lt;font style=&quot;font-size: 15px&quot;&gt;Elasticache Redis Standby&lt;br&gt;&lt;/font&gt;" style="text;html=1;resizable=0;autosize=1;align=center;verticalAlign=middle;points=[];fillColor=none;strokeColor=none;rounded=0;" vertex="1" parent="1">
          <mxGeometry x="948" y="650" width="190" height="20" as="geometry" />
        </mxCell>
        <mxCell id="Dv-C4iRL3iVz8-i2bULK-17" value="" style="points=[[0,0,0],[0.25,0,0],[0.5,0,0],[0.75,0,0],[1,0,0],[0,1,0],[0.25,1,0],[0.5,1,0],[0.75,1,0],[1,1,0],[0,0.25,0],[0,0.5,0],[0,0.75,0],[1,0.25,0],[1,0.5,0],[1,0.75,0]];outlineConnect=0;fontColor=#232F3E;gradientColor=#4D72F3;gradientDirection=north;fillColor=#3334B9;strokeColor=#ffffff;dashed=0;verticalLabelPosition=bottom;verticalAlign=top;align=center;html=1;fontSize=12;fontStyle=0;aspect=fixed;shape=mxgraph.aws4.resourceIcon;resIcon=mxgraph.aws4.elasticache;" vertex="1" parent="1">
          <mxGeometry x="996.5" y="572" width="78" height="78" as="geometry" />
        </mxCell>
        <mxCell id="Dv-C4iRL3iVz8-i2bULK-34" value="" style="rounded=1;arcSize=10;dashed=1;fillColor=none;gradientColor=none;dashPattern=8 3 1 3;strokeWidth=2;" vertex="1" parent="1">
          <mxGeometry x="447" y="530" width="493" height="162" as="geometry" />
        </mxCell>
      </root>
    </mxGraphModel>
  </diagram>
</mxfile>
